HIERARCHY
ROOT Hips
{
  OFFSET -31.5692 30.0904 122.763
  CHANNELS 6 Xposition Yposition Zposition Zrotation Xrotation Yrotation
  JOINT LeftUpLeg
  {
    OFFSET 8.64259 1.95398 -2.38835
    CHANNELS 3 Zrotation Xrotation Yrotation
    JOINT LeftLeg
    {
      OFFSET 43.7702 0 0
      CHANNELS 3 Zrotation Xrotation Yrotation
      JOINT LeftFoot
      {
        OFFSET 40.6238 0 0
        CHANNELS 3 Zrotation Xrotation Yrotation
        JOINT LeftToeBase
        {
          OFFSET 12.7242 0 0
          CHANNELS 3 Zrotation Xrotation Yrotation
          End Site
          {
            OFFSET 0 0 0
          }
        }
      }
    }
  }
  JOINT RightUpLeg
  {
    OFFSET -8.2249 1.95398 -2.59336
    CHANNELS 3 Zrotation Xrotation Yrotation
    JOINT RightLeg
    {
      OFFSET 43.5653 0 0
      CHANNELS 3 Zrotation Xrotation Yrotation
      JOINT RightFoot
      {
        OFFSET 40.6238 0 0
        CHANNELS 3 Zrotation Xrotation Yrotation
        JOINT RightToeBase
        {
          OFFSET 12.7242 0 0
          CHANNELS 3 Zrotation Xrotation Yrotation
          End Site
          {
            OFFSET 0 0 0
          }
        }
      }
    }
  }
  JOINT Spine
  {
    OFFSET 0.165834 0.87714 6.61349
    CHANNELS 3 Zrotation Xrotation Yrotation
    JOINT Spine1
    {
      OFFSET 7.38963 1.71661e-005 0
      CHANNELS 3 Zrotation Xrotation Yrotation
      JOINT Spine2
      {
        OFFSET 11.9445 1.14441e-005 0
        CHANNELS 3 Zrotation Xrotation Yrotation
        JOINT Spine3
        {
          OFFSET 14.7254 4.19617e-005 0
          CHANNELS 3 Zrotation Xrotation Yrotation
          JOINT Spine4
          {
            OFFSET 10.9679 0 0
            CHANNELS 3 Zrotation Xrotation Yrotation
            JOINT RightShoulder
            {
              OFFSET 2.46616 -1.6653 3.69651
              CHANNELS 3 Zrotation Xrotation Yrotation
              JOINT RightArm
              {
                OFFSET 13.0012 0 0
                CHANNELS 3 Zrotation Xrotation Yrotation
                JOINT RightForeArm
                {
                  OFFSET 28.7848 1.62311e-005 0
                  CHANNELS 3 Zrotation Xrotation Yrotation
                  JOINT RightHand
                  {
                    OFFSET 26.5688 1.62095e-005 0
                    CHANNELS 3 Zrotation Xrotation Yrotation
                    End Site
                    {
                      OFFSET 0 0 0
                    }
                  }
                }
              }
            }
            JOINT LeftShoulder
            {
              OFFSET 2.38034 -1.29275 -3.7523
              CHANNELS 3 Zrotation Xrotation Yrotation
              JOINT LeftArm
              {
                OFFSET 16.3182 6.07031e-005 0
                CHANNELS 3 Zrotation Xrotation Yrotation
                JOINT LeftForeArm
                {
                  OFFSET 27.0901 0 0
                  CHANNELS 3 Zrotation Xrotation Yrotation
                  JOINT LeftHand
                  {
                    OFFSET 24.5451 1.51738e-005 0
                    CHANNELS 3 Zrotation Xrotation Yrotation
                    End Site
                    {
                      OFFSET 0 0 0
                    }
                  }
                }
              }
            }
            JOINT Neck
            {
              OFFSET 5.0226 -0.0266342 0
              CHANNELS 3 Zrotation Xrotation Yrotation
              JOINT Head
              {
                OFFSET 6.69364 2.86102e-005 0
                CHANNELS 3 Zrotation Xrotation Yrotation
                End Site
                {
                  OFFSET 0 0 0
                }
              }
            }
          }
        }
      }
    }
  }
}
MOTION
Frames:	14
Frame Time:	0.0416667
-101.514 92.0182 71.9646 -91.2765 -50.7142 -78.0973 -143.126 -42.4672 179.895 -7.46652 8.66607 0.407154 72.9979 -37.9355 64.6003 146.853 -4.26462 -65.1855 176.902 31.9211 106.794 -38.4834 -7.70837 4.2661 66.3081 -2.94797 -1.65288 24.0574 1.13306 4.3398 -1.21322 7.76466 -92.112 11.2708 -3.3973 -3.87049 -0.401003 -3.56423 -3.71737 -22.906 -2.07848 -4.7111 -2.89335 -2.07848 -4.7111 90.1657 -33.579 -105.146 31.0915 1.42986 4.06665 7.00391 -19.9954 -2.17537 -17.9191 -0.338523 -7.23632 -90.9106 -52.8669 78.0062 -34.0432 -10.2946 -19.6717 14.6026 20.5415 -34.141 26.9121 -9.77523 -37.2159 6.38038 0.729758 -11.666 -6.72292 2.89904 3.10435 
-101.285 89.7602 78.0469 -94.9406 -49.6453 -83.3079 -141.167 -44.707 178.721 -12.9724 34.5758 0.641597 53.9644 -57.7234 56.0123 145.794 -5.71644 -66.9851 175.49 33.6383 102.913 -52.137 -11.7684 3.7655 71.1919 -4.81791 -3.3322 21.8969 1.87218 5.04426 -0.657946 7.9407 -91.7377 10.9512 -2.11404 -3.25663 -0.721863 -2.25524 -3.16055 -23.2287 -1.03833 -3.74077 -3.21607 -1.03833 -3.74078 89.4882 -33.2114 -106.554 32.8253 0.253897 2.13973 7.06879 -18.4325 -3.33672 -18.0158 -0.265962 -7.37817 -91.4847 -53.6664 77.3593 -26.7762 0.109109 -13.7238 1.51424 11.7043 -14.5875 12.3305 -3.32389 -29.1859 9.92986 1.44401 -4.38809 -6.98891 2.32476 2.58149 
-98.8337 89.2921 82.3617 -96.1036 -49.995 -85.605 -155.194 -40.0276 168.135 -40.6826 55.7142 4.87533 35.2606 -64.8116 27.6002 146.409 -4.25456 -65.3181 176.115 33.7222 97.8464 -55.9447 -12.9452 3.49474 72.955 -4.31406 -2.33852 22.2765 1.83069 4.59555 -0.0332496 8.05979 -91.4178 10.7377 -0.719946 -2.75509 -0.935828 -0.840448 -2.72078 -23.4477 0.141011 -2.84404 -3.43508 0.141013 -2.84405 89.8595 -29.9103 -107.069 35.5863 -2.02554 -2.10309 7.21933 -14.3107 -4.84272 -23.1715 -0.294417 -5.98816 -90.5909 -53.0796 78.5162 -23.1072 -1.09993 -15.839 -0.874504 27.7817 1.10823 21.4614 -3.42141 -19.3519 10.788 1.88462 2.94416 -6.82911 1.11062 2.38813 
-99.8204 92.7807 87.5814 -98.5086 -50.5005 -93.0293 -155.104 -40.0435 163.77 -34.6049 48.3065 3.68743 21.6797 -62.1823 7.85586 145.873 -3.96078 -65.179 177.955 26.2837 90.139 -51.2182 -14.5403 0.967942 71.8785 -1.75384 -1.59377 25.3731 0.214767 5.92588 0.453234 8.15163 -90.6803 10.5779 0.590034 -1.39975 -1.09363 0.527865 -1.42436 -23.6258 0.983449 -1.15775 -3.61311 0.983443 -1.15776 91.2344 -27.3204 -105.271 37.4545 -1.56777 -5.59128 5.03209 -9.70124 -6.78646 -24.9916 -0.212203 -5.66166 -89.3825 -53.3856 80.3226 -23.2519 -5.6773 -7.40678 2.48297 18.9502 -1.72457 16.9915 -1.66843 -14.5968 3.87085 1.18502 6.60054 -5.27503 -0.0484287 2.92964 
-104.971 98.7479 93.4338 -101.201 -47.7296 -100.853 -139.013 -48.2989 167.434 -4.86521 35.0163 0.391188 4.07639 -68.8015 -2.51852 147.789 -3.07622 -63.715 179.021 18.184 86.0941 -46.2467 -16.1558 -4.01275 63.6162 6.54525 1.64673 22.1053 1.2384 7.10602 1.00753 8.26655 -89.707 10.3429 2.14144 0.395374 -1.32626 2.15677 0.300697 -23.8733 1.9236 1.02091 -3.86062 1.92359 1.0209 91.8898 -26.0834 -104.36 39.7304 -2.34633 -5.89643 4.06127 -8.24918 -10.6116 -28.5249 0.0778525 -6.52339 -88.6786 -51.7446 81.0384 -18.9491 -4.00978 1.11534 3.43098 19.1607 -4.55941 15.3393 -0.983357 -11.8895 -5.05052 0.120277 5.36523 -4.83736 -0.406514 1.42226 
-110.017 102.55 98.5104 -98.7084 -42.6861 -101.357 -135.031 -53.8725 162.078 -1.40856 35.6246 0.0213149 27.2864 -83.7414 21.6522 150.425 -2.09628 -62.0357 177.859 19.7022 85.2281 -49.4736 -15.263 -4.00228 61.8332 7.1089 2.68273 19.9896 2.49555 5.69536 1.55749 8.28129 -89.1311 10.2901 3.50041 1.42422 -1.37675 3.55969 1.26862 -23.9337 2.91054 2.41089 -3.92109 2.91055 2.41088 91.3577 -24.9426 -105.941 39.5482 -3.35628 -6.20889 3.52321 -13.1606 -13.667 -27.1522 0.611983 -9.80517 -88.4777 -46.6878 80.3583 -18.6533 3.49666 8.84425 0.752634 19.3261 -7.16712 12.2624 -0.973263 -14.0982 -6.63741 0.673896 5.24275 -4.49203 0.233483 1.13196 
-114.359 103.599 103.227 -96.1317 -39.2711 -98.4641 -131.618 -55.7653 160.042 -2.07917 34.9668 -0.0357272 135.344 -79.0517 129.148 152.79 -0.730047 -60.178 175.232 22.5974 87.6552 -48.7092 -14.5024 -0.271295 59.5704 6.23488 5.26017 25.674 0.765913 2.97884 1.65892 8.21768 -89.2428 10.4215 3.65172 1.1833 -1.24472 3.70027 1.02124 -23.8077 3.12723 2.22686 -3.79504 3.12721 2.22685 90.4723 -25.3352 -107.678 36.4254 -4.36412 -8.47309 4.75173 -14.2185 -12.6979 -29.1803 0.542593 -9.37999 -88.1762 -49.2652 81.3241 -17.2824 8.7868 15.2602 -1.71437 19.3723 -7.87879 10.5742 -1.50734 -19.7614 -5.62332 1.62092 9.22211 -3.39807 0.78165 1.7433 
-118.944 102.416 108.15 -96.2631 -36.2784 -97.9884 -127.813 -60.9868 159.861 -3.1524 26.7124 -0.21481 141.408 -65.3791 134.023 153.136 -0.364788 -59.7645 176.015 22.6844 90.7501 -47.305 -16.761 -1.69452 60.709 4.69163 3.59151 23.665 1.64445 2.93438 1.57062 8.2822 -89.3422 10.2962 3.42996 1.01074 -1.37055 3.47114 0.858624 -23.9314 2.96757 1.99555 -3.91873 2.96756 1.99554 90.6826 -26.0367 -106.934 35.2373 -5.3879 -10.4299 5.41008 -13.4853 -12.8624 -29.5591 0.0656197 -7.20406 -86.959 -49.0909 83.1388 -22.1385 6.28457 21.4559 0.787631 20.9217 -9.90294 5.965 -0.602008 -19.2674 -4.78138 3.14711 10.8638 -3.83692 2.06154 2.58759 
-123.329 98.8138 113.382 -95.6674 -33.2857 -98.1318 -127.271 -68.4203 156.267 -4.83376 13.1178 -0.616671 144.22 -50.7262 133.52 153.024 -0.176181 -59.6163 174.803 23.7047 90.9271 -47.5735 -13.6682 -1.26299 57.8321 4.40478 -0.192965 24.741 0.00346944 7.98161 1.46564 8.28501 -89.3961 10.2924 3.19611 0.924219 -1.37484 3.23371 0.782515 -23.9325 2.77052 1.84262 -3.91982 2.77054 1.84261 89.9488 -26.3329 -108.35 35.033 -4.55739 -9.42834 4.65512 -13.4126 -13.6971 -27.3394 0.502386 -9.33266 -86.6867 -49.2324 83.5754 -27.1024 4.79717 23.944 0.0599381 17.5685 -8.72676 2.45025 -0.0818172 -18.8508 -4.39433 4.61813 12.915 -3.27794 3.29284 2.25282 
-127.08 92.7818 118.579 -95.9677 -30.0656 -98.9414 -127.347 -77.2811 151.874 -6.69218 5.10858 -1.00537 152.035 -28.9532 138.355 152.635 -0.232817 -59.7559 172.599 21.472 90.5236 -58.1732 -13.4909 -3.36034 75.1615 -9.07327 -4.1488 34.6405 -3.55658 6.25993 1.47414 8.38837 -89.5151 10.0894 3.1585 0.698882 -1.57782 3.18618 0.559055 -24.137 2.80236 1.61647 -4.12434 2.80235 1.61647 89.6282 -27.331 -108.588 34.0081 -3.21152 -8.44778 3.78842 -17.4856 -14.0579 -26.563 0.583214 -10.5825 -86.8468 -51.9111 83.7605 -28.867 4.87409 23.6867 -1.10099 11.2085 -8.04032 -2.53078 0.434827 -20.2163 -2.86505 5.76952 14.8985 -1.00204 4.08861 3.14765 
-131.344 88.3361 123.492 -95.3333 -30.9744 -95.0425 -115.643 -74.8908 163.235 -7.52196 3.7266 -0.998675 155.328 -18.6157 139.235 152.533 -0.497623 -60.0236 171.144 18.9729 92.0346 -64.2296 -10.4946 -2.06116 86.3877 -15.4744 -2.17655 37.8397 -4.69684 5.17894 1.27716 8.30689 -90.1061 10.263 2.49605 -0.424784 -1.40569 2.47495 -0.5343 -23.9597 2.50823 0.345507 -3.94708 2.50824 0.345506 89.0509 -29.694 -108.758 33.6494 -1.86179 -6.85941 3.95214 -19.3303 -12.2463 -27.1102 -0.219322 -7.08442 -86.1796 -59.4864 85.7718 -23.5295 6.89659 15.0985 -3.69527 0.607636 -3.31392 -2.04863 0.0065241 -14.5139 2.22167 7.44735 16.5899 -3.67447 4.71557 3.60374 
-136.347 86.1084 128.25 -94.3059 -34.9187 -94.727 -118.913 -74.3855 162.443 -6.81581 17.2732 -1.02 156.319 -25.6146 142.312 153.58 -0.693672 -59.9593 170.445 21.6741 90.6577 -73.9598 -9.84831 -1.0653 80.894 -10.4732 -4.17939 48.5023 -8.87495 6.54189 0.907627 7.94641 -89.8308 10.9813 1.88504 0.146842 -0.688271 1.88966 0.0637018 -23.2329 1.75373 0.706742 -3.22024 1.75372 0.706739 89.2448 -31.0239 -107.845 39.2929 -3.11432 -2.82465 6.74501 -13.7158 -6.54475 -22.7346 -0.0942747 -6.95369 -87.2901 -57.0055 83.904 -25.8046 6.84868 5.79841 -2.11115 -17.0844 0.288055 3.70942 -0.555286 -2.23982 2.9192 6.23554 7.91601 -4.75794 4.83176 4.66202 
-140.847 84.7267 132.159 -95.5874 -39.3207 -96.992 -119.897 -75.22 164.738 -5.41067 35.5722 -0.810411 160.116 -40.748 147.442 153.913 -1.22706 -60.3643 172.604 31.0465 86.8529 -89.3764 -15.274 -1.70626 62.5475 0.969872 -0.648076 36.3886 -4.49923 8.45521 0.339202 7.83801 -89.2606 11.1921 1.01902 1.3767 -0.479081 1.07861 1.33051 -23.0098 0.558205 1.61924 -2.99717 0.558194 1.61924 89.2146 -30.7121 -108.029 47.7099 -2.50382 3.62488 6.67903 -9.54264 -5.7288 -18.9067 0.085135 -7.66766 -88.7244 -54.4217 81.452 -22.6726 10.0107 -1.85888 -4.1067 -19.6646 -0.00741604 4.22381 -0.675847 -2.85859 7.78815 3.39747 -4.03565 -7.86595 4.17774 0.395731 
-144.133 83.6851 135.393 -98.1779 -39.4008 -98.0272 -111.177 -78.8908 172.586 -4.48747 40.5158 -0.384932 164.653 -57.6829 150.66 153.832 -1.00706 -60.1858 179.084 48.0039 83.3408 -103.748 -23.7513 -4.22624 41.8937 10.2795 7.38298 22.255 1.16797 7.1467 0.106971 8.03148 -89.1361 10.8035 0.611696 1.66112 -0.868377 0.684192 1.6326 -23.3951 0.0842704 1.76813 -3.38244 0.084253 1.76813 90.1653 -29.6976 -106.546 49.5782 -1.72671 7.98466 6.87012 -13.5579 -7.01281 -17.557 0.257879 -10.1117 -89.7662 -53.1728 79.7263 -17.8275 8.2878 -11.2744 -5.2815 -3.4437 -0.0101587 4.01093 -0.580321 -12.4897 11.2962 0.595017 -13.9081 -5.73544 3.92792 -1.94508 
